<svg width="77" height="77" viewBox="0 0 77 77" fill="none" xmlns="http://www.w3.org/2000/svg">
<rect width="77" height="77" rx="38.5" fill="white"/>
<path d="M20.4863 59.7949C19.7637 60.3223 18.9336 60.5859 17.9961 60.5859C17.0781 60.5859 16.3457 60.3516 15.7988 59.8828C15.2324 59.3945 14.9492 58.8379 14.9492 58.2129C14.9492 57.5879 15.0469 57.1289 15.2422 56.8359C15.8086 57.168 16.502 57.334 17.3223 57.334C18.1621 57.334 18.7871 57.2266 19.1973 57.0117C19.627 56.7773 20.0371 56.4648 20.4277 56.0742L24.5879 43.7402L25.1738 41.7188C25.3496 41.1133 25.4375 40.5566 25.4375 40.0488C25.4375 38.2715 24.5977 37.1387 22.918 36.6504C24.4609 36.0645 25.5449 35.4297 26.1699 34.7461C27.1465 33.6719 27.918 32.2559 28.4844 30.498L31.707 19.6875C31.082 18.8477 30.3398 18.4277 29.4805 18.4277C28.6211 18.4277 27.8203 18.6133 27.0781 18.9844C26.8828 18.6328 26.7852 18.2422 26.7852 17.8125C26.7852 17.3633 26.873 16.9434 27.0488 16.5527C27.2441 16.1621 27.5078 15.8203 27.8398 15.5273C28.582 14.9023 29.6367 14.5898 31.0039 14.5898C32.3711 14.5898 33.5332 15 34.4902 15.8203C35.4668 15 36.6777 14.5898 38.123 14.5898C39.5879 14.5898 40.75 14.9805 41.6094 15.7617C42.8594 14.9805 44.1289 14.5898 45.418 14.5898C46.707 14.5898 47.7031 14.834 48.4062 15.3223C49.1289 15.8105 49.4902 16.4746 49.4902 17.3145C49.4902 17.7051 49.373 18.0469 49.1387 18.3398C48.6895 18.0078 48.1621 17.8418 47.5566 17.8418C46.248 17.8418 45.3984 18.7305 45.0078 20.5078L48.7578 32.4902C49.2266 33.9941 50.3984 35.166 52.2734 36.0059C52.8008 36.2402 53.3379 36.4551 53.8848 36.6504C51.9316 37.2949 50.9551 38.2617 50.9551 39.5508C50.9551 40.0391 51.0332 40.4688 51.1895 40.8398L56.7852 55.8398C57.6445 56.7383 58.5137 57.1875 59.3926 57.1875C60.2715 57.1875 60.9551 57.0215 61.4434 56.6895C61.6582 56.8457 61.7656 57.1387 61.7656 57.5684C61.7656 57.998 61.6973 58.3984 61.5605 58.7695C61.4238 59.1211 61.209 59.4336 60.916 59.707C60.291 60.293 59.373 60.5859 58.1621 60.5859C56.9512 60.5859 55.8965 60.2539 54.998 59.5898C53.9824 60.2539 52.8301 60.5859 51.541 60.5859C50.2715 60.5859 49.1777 60.2637 48.2598 59.6191C47.3809 60.2637 46.3457 60.5859 45.1543 60.5859C43.9629 60.5859 42.9766 60.3418 42.1953 59.8535C41.4141 59.3457 41.0039 58.6328 40.9648 57.7148C40.9648 57.168 41.0723 56.8262 41.2871 56.6895C41.8145 57.0215 42.3516 57.1875 42.8984 57.1875C44.0508 57.1875 44.8613 56.9531 45.3301 56.4844L43.1035 49.0137H27.2539L25.3203 55.4883C26.1211 56.7188 27.0879 57.334 28.2207 57.334C29.373 57.334 30.2324 57.168 30.7988 56.8359C31.0137 57.1875 31.1211 57.6758 31.1211 58.3008C31.1211 58.9062 30.8184 59.4434 30.2129 59.9121C29.6074 60.3613 28.8262 60.5859 27.8691 60.5859C26.9121 60.5859 26.0332 60.3418 25.2324 59.8535C24.5293 60.3418 23.7188 60.5859 22.8008 60.5859C21.9023 60.5859 21.1309 60.3223 20.4863 59.7949ZM41.9023 45.0586L35.1055 22.4707L28.4258 45.0586H41.9023ZM47.498 52.2363C47.8496 52.2363 48.0254 51.8457 48.0254 51.0645C48.0254 49.6973 47.8203 48.3691 47.4102 47.0801L46.2969 43.6523C45.5156 41.0742 45.125 39.4531 45.125 38.7891C45.1055 37.6953 45.584 36.9727 46.5605 36.6211C45.2129 36.3477 44.3926 35.9277 44.0996 35.3613C43.9629 35.127 43.8457 34.9414 43.748 34.8047C43.6699 34.668 43.582 34.5117 43.4844 34.3359C43.4062 34.1406 43.3086 33.8965 43.1914 33.6035C43.0742 33.3105 42.918 32.8906 42.7227 32.3438L40.9062 26.8652C40.4766 25.498 39.8418 24.4629 39.002 23.7598C38.748 23.5449 38.5137 23.418 38.2988 23.3789C39.6074 28.1055 40.4668 31.1328 40.877 32.4609C43.709 41.1719 45.4082 46.3379 45.9746 47.959L47.498 52.2363ZM56.1406 54.873L56.1992 55.0488L56.1406 54.873Z" fill="url(#paint0_linear_116_1769)"/>
<defs>
<linearGradient id="paint0_linear_116_1769" x1="24.8182" y1="8.3125" x2="46.3395" y2="58.7086" gradientUnits="userSpaceOnUse">
<stop stop-color="#F31616"/>
<stop offset="1" stop-color="#411ADF" stop-opacity="0.96"/>
</linearGradient>
</defs>
</svg>
