<svg width="25" height="24" viewBox="0 0 25 24" fill="none" xmlns="http://www.w3.org/2000/svg">
<path d="M22.6101 16.4508H8.5323L9.23915 15.0234L20.9836 15.0023C21.3808 15.0023 21.7212 14.7211 21.7921 14.332L23.4186 5.30625C23.4611 5.06953 23.3973 4.82578 23.2413 4.64062C23.1642 4.5495 23.068 4.4761 22.9594 4.42551C22.8508 4.37492 22.7324 4.34835 22.6125 4.34766L7.6718 4.29844L7.54414 3.70312C7.46376 3.32344 7.11861 3.04688 6.72619 3.04688H3.07376C2.85244 3.04688 2.64018 3.13404 2.48368 3.2892C2.32718 3.44436 2.23926 3.65479 2.23926 3.87422C2.23926 4.09364 2.32718 4.30408 2.48368 4.45924C2.64018 4.6144 2.85244 4.70156 3.07376 4.70156H6.05007L6.60798 7.33125L7.98149 13.9242L6.21319 16.7859C6.12136 16.9088 6.06605 17.0547 6.05352 17.2071C6.04098 17.3596 6.07173 17.5124 6.14227 17.6484C6.28411 17.9273 6.57016 18.1031 6.88694 18.1031H8.37155C8.05505 18.5199 7.8841 19.0275 7.88456 19.5492C7.88456 20.8758 8.97201 21.9539 10.3101 21.9539C11.6481 21.9539 12.7355 20.8758 12.7355 19.5492C12.7355 19.0266 12.5606 18.518 12.2486 18.1031H16.057C15.7405 18.5199 15.5696 19.0275 15.57 19.5492C15.57 20.8758 16.6575 21.9539 17.9955 21.9539C19.3336 21.9539 20.421 20.8758 20.421 19.5492C20.421 19.0266 20.2461 18.518 19.934 18.1031H22.6125C23.0711 18.1031 23.447 17.7328 23.447 17.2758C23.4456 17.0566 23.3568 16.8468 23.2001 16.6923C23.0433 16.5377 22.8312 16.4509 22.6101 16.4508ZM8.01931 5.92969L21.6314 5.97422L20.2981 13.3758L9.60557 13.3945L8.01931 5.92969ZM10.3101 20.2898C9.89871 20.2898 9.56302 19.957 9.56302 19.5492C9.56302 19.1414 9.89871 18.8086 10.3101 18.8086C10.7214 18.8086 11.0571 19.1414 11.0571 19.5492C11.0571 19.7456 10.9784 19.934 10.8383 20.0729C10.6982 20.2118 10.5082 20.2898 10.3101 20.2898ZM17.9955 20.2898C17.5842 20.2898 17.2485 19.957 17.2485 19.5492C17.2485 19.1414 17.5842 18.8086 17.9955 18.8086C18.4069 18.8086 18.7425 19.1414 18.7425 19.5492C18.7425 19.7456 18.6638 19.934 18.5237 20.0729C18.3836 20.2118 18.1936 20.2898 17.9955 20.2898Z" fill="black"/>
</svg>
