<svg width="80" height="87" viewBox="0 0 80 87" fill="none" xmlns="http://www.w3.org/2000/svg">
<rect width="79.6667" height="86.4" rx="39.8333" fill="white"/>
<path d="M21.8198 64.9949C21.0972 65.5223 20.2671 65.7859 19.3296 65.7859C18.4116 65.7859 17.6792 65.5516 17.1323 65.0828C16.5659 64.5945 16.2827 64.0379 16.2827 63.4129C16.2827 62.7879 16.3804 62.3289 16.5757 62.0359C17.1421 62.368 17.8354 62.534 18.6558 62.534C19.4956 62.534 20.1206 62.4266 20.5308 62.2117C20.9604 61.9774 21.3706 61.6649 21.7612 61.2742L25.9214 48.9402L26.5073 46.9188C26.6831 46.3133 26.771 45.7567 26.771 45.2488C26.771 43.4715 25.9312 42.3387 24.2515 41.8504C25.7944 41.2645 26.8784 40.6297 27.5034 39.9461C28.48 38.8719 29.2515 37.4559 29.8179 35.6981L33.0405 24.8875C32.4155 24.0477 31.6733 23.6277 30.814 23.6277C29.9546 23.6277 29.1538 23.8133 28.4116 24.1844C28.2163 23.8328 28.1187 23.4422 28.1187 23.0125C28.1187 22.5633 28.2065 22.1434 28.3823 21.7527C28.5776 21.3621 28.8413 21.0203 29.1733 20.7274C29.9155 20.1024 30.9702 19.7899 32.3374 19.7899C33.7046 19.7899 34.8667 20.2 35.8237 21.0203C36.8003 20.2 38.0112 19.7899 39.4565 19.7899C40.9214 19.7899 42.0835 20.1805 42.9429 20.9617C44.1929 20.1805 45.4624 19.7899 46.7515 19.7899C48.0405 19.7899 49.0366 20.034 49.7397 20.5223C50.4624 21.0106 50.8237 21.6746 50.8237 22.5145C50.8237 22.9051 50.7065 23.2469 50.4722 23.5399C50.0229 23.2078 49.4956 23.0418 48.8901 23.0418C47.5815 23.0418 46.7319 23.9305 46.3413 25.7078L50.0913 37.6902C50.5601 39.1942 51.7319 40.366 53.6069 41.2059C54.1343 41.4402 54.6714 41.6551 55.2183 41.8504C53.2651 42.4949 52.2886 43.4617 52.2886 44.7508C52.2886 45.2391 52.3667 45.6688 52.5229 46.0399L58.1187 61.0399C58.978 61.9383 59.8472 62.3875 60.7261 62.3875C61.605 62.3875 62.2886 62.2215 62.7769 61.8895C62.9917 62.0457 63.0991 62.3387 63.0991 62.7684C63.0991 63.1981 63.0308 63.5984 62.894 63.9695C62.7573 64.3211 62.5425 64.6336 62.2495 64.907C61.6245 65.493 60.7065 65.7859 59.4956 65.7859C58.2847 65.7859 57.23 65.4539 56.3315 64.7899C55.3159 65.4539 54.1636 65.7859 52.8745 65.7859C51.605 65.7859 50.5112 65.4637 49.5933 64.8192C48.7144 65.4637 47.6792 65.7859 46.4878 65.7859C45.2964 65.7859 44.3101 65.5418 43.5288 65.0535C42.7476 64.5457 42.3374 63.8328 42.2983 62.9149C42.2983 62.368 42.4058 62.0262 42.6206 61.8895C43.1479 62.2215 43.6851 62.3875 44.2319 62.3875C45.3843 62.3875 46.1948 62.1531 46.6636 61.6844L44.437 54.2137H28.5874L26.6538 60.6883C27.4546 61.9188 28.4214 62.534 29.5542 62.534C30.7065 62.534 31.5659 62.368 32.1323 62.0359C32.3472 62.3875 32.4546 62.8758 32.4546 63.5008C32.4546 64.1063 32.1519 64.6434 31.5464 65.1121C30.9409 65.5613 30.1597 65.7859 29.2026 65.7859C28.2456 65.7859 27.3667 65.5418 26.5659 65.0535C25.8628 65.5418 25.0522 65.7859 24.1343 65.7859C23.2358 65.7859 22.4644 65.5223 21.8198 64.9949ZM43.2358 50.2586L36.439 27.6707L29.7593 50.2586H43.2358ZM48.8315 57.4363C49.1831 57.4363 49.3589 57.0457 49.3589 56.2645C49.3589 54.8973 49.1538 53.5692 48.7437 52.2801L47.6304 48.8524C46.8491 46.2742 46.4585 44.6531 46.4585 43.9891C46.439 42.8953 46.9175 42.1727 47.894 41.8211C46.5464 41.5477 45.7261 41.1277 45.4331 40.5613C45.2964 40.327 45.1792 40.1414 45.0815 40.0047C45.0034 39.868 44.9155 39.7117 44.8179 39.5359C44.7397 39.3406 44.6421 39.0965 44.5249 38.8035C44.4077 38.5106 44.2515 38.0906 44.0562 37.5438L42.2397 32.0652C41.8101 30.6981 41.1753 29.6629 40.3354 28.9598C40.0815 28.7449 39.8472 28.618 39.6323 28.5789C40.9409 33.3055 41.8003 36.3328 42.2104 37.6609C45.0425 46.3719 46.7417 51.5379 47.3081 53.159L48.8315 57.4363ZM57.4741 60.0731L57.5327 60.2488L57.4741 60.0731Z" fill="url(#paint0_linear_2111_596)"/>
<defs>
<linearGradient id="paint0_linear_2111_596" x1="26.1517" y1="1.20001" x2="62.557" y2="62.4731" gradientUnits="userSpaceOnUse">
<stop stop-color="#F31616"/>
<stop offset="1" stop-color="#411ADF" stop-opacity="0.96"/>
</linearGradient>
</defs>
</svg>
