<svg width="26" height="24" viewBox="0 0 26 24" fill="none" xmlns="http://www.w3.org/2000/svg">
<path d="M21.0703 12V7H23.0876V13H21.0703M21.0703 17H23.0876V15H21.0703M10.9838 13C13.6769 13 19.053 14.34 19.053 17V20H2.91455V17C2.91455 14.34 8.29067 13 10.9838 13ZM10.9838 4C12.0538 4 13.08 4.42143 13.8367 5.17157C14.5933 5.92172 15.0184 6.93913 15.0184 8C15.0184 9.06087 14.5933 10.0783 13.8367 10.8284C13.08 11.5786 12.0538 12 10.9838 12C9.91373 12 8.88751 11.5786 8.13087 10.8284C7.37424 10.0783 6.94916 9.06087 6.94916 8C6.94916 6.93913 7.37424 5.92172 8.13087 5.17157C8.88751 4.42143 9.91373 4 10.9838 4ZM10.9838 14.9C7.98807 14.9 4.83099 16.36 4.83099 17V18.1H17.1366V17C17.1366 16.36 13.9795 14.9 10.9838 14.9ZM10.9838 5.9C10.422 5.9 9.88323 6.12125 9.486 6.51508C9.08877 6.9089 8.8656 7.44305 8.8656 8C8.8656 8.55695 9.08877 9.0911 9.486 9.48492C9.88323 9.87875 10.422 10.1 10.9838 10.1C11.5455 10.1 12.0843 9.87875 12.4815 9.48492C12.8788 9.0911 13.1019 8.55695 13.1019 8C13.1019 7.44305 12.8788 6.9089 12.4815 6.51508C12.0843 6.12125 11.5455 5.9 10.9838 5.9Z" fill="black"/>
</svg>
